<svg width="40" height="41" viewBox="0 0 40 41" fill="none" xmlns="http://www.w3.org/2000/svg">
<g id="gmail-svgrepo-com 1" clip-path="url(#clip0_1499_650)">
<path id="Vector" d="M34 0.402351H6C2.68629 0.402351 0 3.12874 0 6.4919V34.9098C0 38.273 2.68629 40.9994 6 40.9994H34C37.3137 40.9994 40 38.273 40 34.9098V6.4919C40 3.12874 37.3137 0.402351 34 0.402351Z" fill="white"/>
<path id="Vector_2" d="M12.3438 31.4051V20.1458L5.9375 15.1505V29.0264C5.9375 30.6122 6.71875 31.4051 8.28125 31.4051" fill="#4285F4"/>
<path id="Vector_3" d="M12.0312 20.0665L20 26.1719L27.9688 20.0665V12.296L20 18.4014L12.0312 12.296" fill="#EA4335"/>
<path id="Vector_4" d="M27.6562 31.4051V20.1458L34.0625 15.1505V29.0264C34.0625 30.6122 33.2812 31.4051 31.7188 31.4051" fill="#34A853"/>
<path id="Vector_5" d="M5.9375 15.3091L12.3438 20.3044V12.5339L10 10.7102C7.89062 9.04508 5.9375 10.7102 5.9375 12.7718" fill="#C5221F"/>
<path id="Vector_6" d="M34.0625 15.3091L27.6562 20.3044V12.5339L30 10.7102C32.1094 9.04508 34.0625 10.7102 34.0625 12.7718" fill="#FBBC04"/>
</g>
<defs>
<clipPath id="clip0_1499_650">
<rect width="40" height="40.597" fill="white" transform="translate(0 0.402351)"/>
</clipPath>
</defs>
</svg>
