<svg width="40" height="41" viewBox="0 0 40 41" fill="none" xmlns="http://www.w3.org/2000/svg">
<g id="instagram-1-svgrepo-com 2">
<path id="Vector" d="M30 2.93967H10C5.85786 2.93967 2.5 6.34765 2.5 10.5516V30.8501C2.5 35.0541 5.85786 38.4621 10 38.4621H30C34.1421 38.4621 37.5 35.0541 37.5 30.8501V10.5516C37.5 6.34765 34.1421 2.93967 30 2.93967Z" fill="url(#paint0_radial_1499_657)"/>
<path id="Vector_2" d="M30 2.93967H10C5.85786 2.93967 2.5 6.34765 2.5 10.5516V30.8501C2.5 35.0541 5.85786 38.4621 10 38.4621H30C34.1421 38.4621 37.5 35.0541 37.5 30.8501V10.5516C37.5 6.34765 34.1421 2.93967 30 2.93967Z" fill="url(#paint1_radial_1499_657)"/>
<path id="Vector_3" d="M30 2.93967H10C5.85786 2.93967 2.5 6.34765 2.5 10.5516V30.8501C2.5 35.0541 5.85786 38.4621 10 38.4621H30C34.1421 38.4621 37.5 35.0541 37.5 30.8501V10.5516C37.5 6.34765 34.1421 2.93967 30 2.93967Z" fill="url(#paint2_radial_1499_657)"/>
<path id="Vector_4" d="M28.75 13.7232C28.75 14.7742 27.9105 15.6262 26.875 15.6262C25.8395 15.6262 25 14.7742 25 13.7232C25 12.6723 25.8395 11.8203 26.875 11.8203C27.9105 11.8203 28.75 12.6723 28.75 13.7232Z" fill="white"/>
<path id="Vector_5" fill-rule="evenodd" clip-rule="evenodd" d="M20 27.0441C23.4517 27.0441 26.25 24.2041 26.25 20.7009C26.25 17.1976 23.4517 14.3576 20 14.3576C16.5482 14.3576 13.75 17.1976 13.75 20.7009C13.75 24.2041 16.5482 27.0441 20 27.0441ZM20 24.5068C22.0711 24.5068 23.75 22.8029 23.75 20.7009C23.75 18.5988 22.0711 16.8949 20 16.8949C17.9289 16.8949 16.25 18.5988 16.25 20.7009C16.25 22.8029 17.9289 24.5068 20 24.5068Z" fill="white"/>
<path id="Vector_6" fill-rule="evenodd" clip-rule="evenodd" d="M7.5 20.1934C7.5 15.9303 7.5 13.7987 8.31745 12.1705C9.0365 10.7382 10.1839 9.57372 11.5951 8.84394C13.1994 8.01429 15.2996 8.01429 19.5 8.01429H20.5C24.7004 8.01429 26.8006 8.01429 28.4049 8.84394C29.8161 9.57372 30.9635 10.7382 31.6825 12.1705C32.5 13.7987 32.5 15.9303 32.5 20.1934V21.2083C32.5 25.4714 32.5 27.603 31.6825 29.2312C30.9635 30.6635 29.8161 31.828 28.4049 32.5577C26.8006 33.3874 24.7004 33.3874 20.5 33.3874H19.5C15.2996 33.3874 13.1994 33.3874 11.5951 32.5577C10.1839 31.828 9.0365 30.6635 8.31745 29.2312C7.5 27.603 7.5 25.4714 7.5 21.2083V20.1934ZM19.5 10.5516H20.5C22.6415 10.5516 24.0971 10.5536 25.2224 10.6469C26.3185 10.7378 26.879 10.9025 27.27 11.1047C28.2108 11.5912 28.9756 12.3675 29.455 13.3223C29.6542 13.7192 29.8166 14.2881 29.9061 15.4005C29.998 16.5426 30 18.0199 30 20.1934V21.2083C30 23.3818 29.998 24.8591 29.9061 26.0012C29.8166 27.1137 29.6542 27.6825 29.455 28.0794C28.9756 29.0342 28.2108 29.8104 27.27 30.297C26.879 30.4992 26.3185 30.664 25.2224 30.7548C24.0971 30.8481 22.6415 30.8501 20.5 30.8501H19.5C17.3585 30.8501 15.9029 30.8481 14.7776 30.7548C13.6815 30.664 13.121 30.4992 12.73 30.297C11.7892 29.8104 11.0243 29.0342 10.545 28.0794C10.3457 27.6825 10.1834 27.1137 10.0939 26.0012C10.002 24.8591 10 23.3818 10 21.2083V20.1934C10 18.0199 10.002 16.5426 10.0939 15.4005C10.1834 14.2881 10.3457 13.7192 10.545 13.3223C11.0243 12.3675 11.7892 11.5912 12.73 11.1047C13.121 10.9025 13.6815 10.7378 14.7776 10.6469C15.9029 10.5536 17.3585 10.5516 19.5 10.5516Z" fill="white"/>
</g>
<defs>
<radialGradient id="paint0_radial_1499_657" cx="0" cy="0" r="1" gradientUnits="userSpaceOnUse" gradientTransform="translate(15 29.5815) rotate(-55.7716) scale(32.2227 32.0509)">
<stop stop-color="#B13589"/>
<stop offset="0.79309" stop-color="#C62F94"/>
<stop offset="1" stop-color="#8A3AC8"/>
</radialGradient>
<radialGradient id="paint1_radial_1499_657" cx="0" cy="0" r="1" gradientUnits="userSpaceOnUse" gradientTransform="translate(13.75 39.7307) rotate(-65.4586) scale(28.5902 28.3159)">
<stop stop-color="#E0E8B7"/>
<stop offset="0.444662" stop-color="#FB8A2E"/>
<stop offset="0.71474" stop-color="#E2425C"/>
<stop offset="1" stop-color="#E2425C" stop-opacity="0"/>
</radialGradient>
<radialGradient id="paint2_radial_1499_657" cx="0" cy="0" r="1" gradientUnits="userSpaceOnUse" gradientTransform="translate(0.625001 4.20832) rotate(-8.24979) scale(48.6282 10.55)">
<stop offset="0.156701" stop-color="#406ADC"/>
<stop offset="0.467799" stop-color="#6A45BE"/>
<stop offset="1" stop-color="#6A45BE" stop-opacity="0"/>
</radialGradient>
</defs>
</svg>
