<svg width="20" height="21" viewBox="0 0 20 21" fill="none" xmlns="http://www.w3.org/2000/svg">
<g id="verified-svgrepo-com 1" clip-path="url(#clip0_1499_635)">
<path id="Vector" d="M12.2334 20.8489C11.6889 20.8489 11.1778 20.5896 10.7556 20.364C10.4889 20.2287 10.1667 20.0595 10 20.0595C9.83333 20.0595 9.49999 20.2287 9.24443 20.364C8.71109 20.6459 8.0444 20.9842 7.33326 20.7925C6.59991 20.6008 6.1999 19.9468 5.86656 19.428C5.72211 19.1912 5.52211 18.8754 5.38877 18.7965C5.25543 18.7176 4.89987 18.7063 4.59986 18.6837C3.99985 18.6499 3.25539 18.6161 2.72204 18.086C2.18869 17.5335 2.15536 16.7779 2.12202 16.1689C2.11091 15.8757 2.08869 15.5036 2.01091 15.3683C1.94424 15.2442 1.62201 15.0412 1.39979 14.8946C0.888662 14.5563 0.255313 14.139 0.0553081 13.406C-0.133585 12.6843 0.199756 12.0077 0.477541 11.4664C0.610877 11.1957 0.777548 10.8687 0.777548 10.6995C0.777548 10.5304 0.610877 10.1921 0.477541 9.93269C0.199756 9.39139 -0.133585 8.71476 0.0553081 7.99305C0.244202 7.24876 0.888662 6.84279 1.39979 6.50447C1.63312 6.35787 1.94424 6.15488 2.02202 6.01956C2.0998 5.88423 2.11091 5.52337 2.13314 5.21888C2.16647 4.60992 2.1998 3.85435 2.72204 3.31305C3.2665 2.77175 4.01096 2.73792 4.61097 2.70409C4.89987 2.69281 5.26655 2.67026 5.39988 2.59132C5.52211 2.52366 5.72211 2.19662 5.86656 1.97108C6.1999 1.45233 6.61102 0.809536 7.33326 0.606548C8.0444 0.414837 8.71109 0.75315 9.24443 1.03508C9.5111 1.1704 9.83333 1.33956 10 1.33956C10.1667 1.33956 10.5 1.1704 10.7556 1.03508C11.2889 0.764428 11.9556 0.414837 12.6667 0.606548C13.4001 0.798259 13.8001 1.45233 14.1334 1.97108C14.2779 2.2079 14.4779 2.52366 14.6112 2.6026C14.7446 2.68154 15.1001 2.69281 15.4001 2.71537C16.0002 2.7492 16.7446 2.78303 17.278 3.31305C17.8113 3.86563 17.8446 4.6212 17.878 5.23016C17.8891 5.52337 17.9113 5.89551 17.9891 6.03083C18.0558 6.15488 18.378 6.35787 18.6002 6.50447C19.1113 6.84279 19.7447 7.26004 19.9447 7.99305C20.1336 8.71476 19.8002 9.39139 19.5225 9.93269C19.3891 10.2033 19.2225 10.5304 19.2225 10.6995C19.2225 10.8687 19.3891 11.207 19.5225 11.4664C19.8002 12.0077 20.1336 12.6843 19.9447 13.406C19.7558 14.1503 19.1113 14.5563 18.6002 14.8946C18.3669 15.0412 18.0558 15.2442 17.978 15.3795C17.9002 15.5149 17.8891 15.8757 17.8669 16.1802C17.8335 16.7892 17.8002 17.5447 17.278 18.086C16.7335 18.6273 15.989 18.6612 15.389 18.695C15.1001 18.7063 14.7335 18.7288 14.6001 18.8078C14.4779 18.8754 14.2779 19.2025 14.1334 19.428C13.8001 19.9468 13.389 20.5896 12.6667 20.7925C12.5223 20.8376 12.3778 20.8489 12.2334 20.8489ZM7.77772 2.24173C7.77772 2.24173 7.77772 2.24173 7.76661 2.24173C7.65549 2.28684 7.39993 2.67026 7.27771 2.88452C7.01103 3.30178 6.71103 3.77541 6.23324 4.05734C5.74434 4.33927 5.18877 4.3731 4.68875 4.39565C4.4443 4.40693 3.98874 4.42949 3.88873 4.50843C3.82207 4.59864 3.79984 5.04973 3.78873 5.29782C3.76651 5.80529 3.73318 6.36915 3.45539 6.85406C3.17761 7.33898 2.71093 7.64346 2.29981 7.91411C2.08869 8.04944 1.7109 8.29753 1.66646 8.42158C1.65535 8.54561 1.84424 8.92903 1.95535 9.15457C2.17758 9.60565 2.44425 10.1131 2.44425 10.6883C2.44425 11.2634 2.18869 11.7709 1.95535 12.2219C1.84424 12.4475 1.64424 12.8309 1.66646 12.955C1.7109 13.0677 2.08869 13.3271 2.29981 13.4511C2.71093 13.7218 3.17761 14.0263 3.45539 14.5112C3.73318 15.0074 3.76651 15.5712 3.78873 16.0787C3.79984 16.3268 3.82207 16.7892 3.89985 16.8907C3.98874 16.9583 4.43319 16.9809 4.67764 16.9922C5.17766 17.0147 5.73322 17.0485 6.21101 17.3305C6.6888 17.6124 6.98881 18.086 7.25548 18.5033C7.38882 18.7176 7.63327 19.101 7.7555 19.1461C7.86662 19.1799 8.25552 18.9656 8.47775 18.8529C8.9222 18.6273 9.42221 18.3567 9.98889 18.3567C10.5556 18.3567 11.0556 18.6161 11.5 18.8529C11.7223 18.9656 12.0778 19.1799 12.2223 19.1461C12.3334 19.101 12.589 18.7176 12.7112 18.5033C12.9779 18.086 13.2779 17.6124 13.7557 17.3305C14.2446 17.0485 14.8001 17.0147 15.3001 16.9922C15.5446 16.9809 16.0002 16.9583 16.1002 16.8794C16.1668 16.7892 16.189 16.3381 16.2002 16.09C16.2224 15.5825 16.2557 15.0187 16.5335 14.5337C16.8113 14.0488 17.278 13.7443 17.6891 13.4737C17.9002 13.3384 18.278 13.0903 18.3224 12.9662C18.3335 12.8422 18.1446 12.4588 18.0335 12.2332C17.8113 11.7821 17.5446 11.2747 17.5446 10.6995C17.5446 10.1244 17.8002 9.61693 18.0335 9.16585C18.1446 8.9403 18.3335 8.55688 18.3224 8.43286C18.278 8.30881 17.8891 8.06071 17.6891 7.92539C17.278 7.65474 16.8113 7.35026 16.5335 6.86534C16.2557 6.36915 16.2224 5.80529 16.2002 5.29782C16.189 5.04973 16.1668 4.58737 16.089 4.48587C16.0002 4.41821 15.5557 4.39565 15.3112 4.38438C14.8112 4.36182 14.2557 4.32799 13.7779 4.04606C13.3001 3.76414 13.0001 3.2905 12.7334 2.87325C12.6001 2.65898 12.3556 2.27556 12.2334 2.23045C12.1223 2.19662 11.7334 2.41088 11.5112 2.52366C11.0667 2.7492 10.5667 3.01985 10 3.01985C9.43332 3.01985 8.93331 2.76047 8.48886 2.52366C8.26663 2.41088 7.91107 2.23045 7.77772 2.23045V2.24173ZM8.32219 14.6578C8.09996 14.6578 7.88884 14.5676 7.73327 14.4097L4.94432 11.5791C4.62209 11.2521 4.62209 10.7108 4.94432 10.3838C5.26655 10.0567 5.79989 10.0567 6.12212 10.3838L8.32219 12.6166L13.8668 6.98939C14.189 6.66235 14.7223 6.66235 15.0446 6.98939C15.3668 7.31642 15.3668 7.85772 15.0446 8.18476L8.91109 14.4097C8.75553 14.5676 8.54441 14.6578 8.32219 14.6578Z" fill="#FB3F08"/>
</g>
<defs>
<clipPath id="clip0_1499_635">
<rect width="20" height="20.2985" fill="white" transform="translate(0 0.550415)"/>
</clipPath>
</defs>
</svg>
