<svg width="40" height="41" viewBox="0 0 40 41" fill="none" xmlns="http://www.w3.org/2000/svg">
<g id="whatsapp-communication-message-interaction-network-svgrepo-com 1">
<g id="SVGRepo_iconCarrier">
<g id="Layer_2">
<g id="Group">
<g id="Group_2">
<path id="Vector" fill-rule="evenodd" clip-rule="evenodd" d="M33.1096 7.32333C17.736 -7.82788 -6.38158 10.9154 4.06722 29.9135L1.44922 39.6146L11.2312 37.0115C29.946 47.054 47.8624 22.7165 33.1096 7.32333Z" fill="#F1F1F1"/>
<path id="Vector_2" fill-rule="evenodd" clip-rule="evenodd" d="M20.0573 36.4302C17.0201 36.4411 14.0677 35.5155 11.5213 33.8746L5.60286 35.4494L7.18286 29.5949C5.40766 26.9248 4.40646 23.7931 4.42006 20.5519C4.39206 6.52601 21.3901 -0.625158 31.1185 9.341C40.9249 19.2223 33.8809 36.461 20.0573 36.4302Z" fill="#66E066"/>
<path id="Vector_3" fill-rule="evenodd" clip-rule="evenodd" d="M28.6349 24.5478C28.1649 24.3091 25.8537 23.155 25.4229 22.9958C24.9921 22.8367 24.6785 22.7571 24.3653 23.2349C24.0517 23.7123 23.1517 24.7865 22.8773 25.1044C22.6033 25.4231 22.3289 25.4629 21.8589 25.2242C20.8433 25.3618 15.6333 20.89 15.4637 19.5528C15.1897 19.0758 15.4345 18.8172 15.6701 18.5793C16.0793 18.1234 16.5973 17.5501 16.8449 16.9481C17.0017 16.6294 16.9233 16.3509 16.8057 16.1122C16.6881 15.8735 15.7745 13.514 15.3565 12.5709C15.0045 11.7764 14.6337 11.7606 14.2989 11.7464C13.5057 11.759 12.8917 11.5499 12.1445 12.3322C9.34288 15.0688 10.6277 18.9146 12.4185 21.2453C12.6533 21.5635 15.6705 26.5342 20.4485 28.4464C24.4193 30.0357 25.2273 29.7195 26.0893 29.6399C26.9513 29.5603 28.8705 28.4862 29.2621 27.3722C29.6537 26.2582 29.6537 25.3033 29.5365 25.104C29.4185 24.9059 29.1049 24.7865 28.6349 24.5478Z" fill="#F1F1F1"/>
</g>
</g>
</g>
</g>
</g>
</svg>
